HIERARCHY
ROOT Hips
{
	OFFSET 0.000000 0.000000 0.000000
	CHANNELS 6 Xposition Yposition Zposition Xrotation Yrotation Zrotation
	JOINT LeftUpLeg_virtual
	{
		OFFSET 0.000000 0.000000 0.000000
		CHANNELS 3 Xrotation Yrotation Zrotation
		JOINT LeftUpLeg
		{
			OFFSET 10.205400 -3.823500 0.155100
			CHANNELS 3 Xrotation Yrotation Zrotation
			JOINT LeftLeg
			{
				OFFSET 0.708757 -12.982077 0.567790
				CHANNELS 3 Xrotation Yrotation Zrotation
				JOINT LeftFoot
				{
					OFFSET -0.708756 -10.717838 -2.184338
					CHANNELS 3 Xrotation Yrotation Zrotation
					JOINT LeftToeBase
					{
						OFFSET 0.108149 -7.191104 7.560241
						CHANNELS 3 Xrotation Yrotation Zrotation
						JOINT LeftToe_End
						{
							OFFSET 0.070230 0.081724 4.490308
							CHANNELS 3 Xrotation Yrotation Zrotation
							End Site
							{
								OFFSET 0 0 0
							}
						}
					}
				}
			}
		}
	}
	JOINT RightUpLeg_virtual
	{
		OFFSET 0.000000 0.000000 0.000000
		CHANNELS 3 Xrotation Yrotation Zrotation
		JOINT RightUpLeg
		{
			OFFSET -10.205400 -3.823500 0.005500
			CHANNELS 3 Xrotation Yrotation Zrotation
			JOINT RightLeg
			{
				OFFSET -0.708756 -12.982134 0.610632
				CHANNELS 3 Xrotation Yrotation Zrotation
				JOINT RightFoot
				{
					OFFSET 0.708754 -10.717769 -1.945823
					CHANNELS 3 Xrotation Yrotation Zrotation
					JOINT RightToeBase
					{
						OFFSET -0.108140 -7.191069 7.372968
						CHANNELS 3 Xrotation Yrotation Zrotation
						JOINT RightToe_End
						{
							OFFSET -0.070227 0.081735 4.479403
							CHANNELS 3 Xrotation Yrotation Zrotation
							End Site
							{
								OFFSET 0 0 0
							}
						}
					}
				}
			}
		}
	}
	JOINT Spine_virtual
	{
		OFFSET 0.000000 0.000000 0.000000
		CHANNELS 3 Xrotation Yrotation Zrotation
		JOINT Spine
		{
			OFFSET 0.000000 6.876099 0.125700
			CHANNELS 3 Xrotation Yrotation Zrotation
			JOINT Spine1
			{
				OFFSET 0.000000 5.730043 0.104720
				CHANNELS 3 Xrotation Yrotation Zrotation
				JOINT Spine1_split
				{
					OFFSET 0.000000 5.730043 0.104720
					CHANNELS 3 Xrotation Yrotation Zrotation
					JOINT Spine2
					{
						OFFSET 0.000000 5.730043 0.104720
						CHANNELS 3 Xrotation Yrotation Zrotation
						JOINT Neck_virtual
						{
							OFFSET 0.000000 0.000000 0.000000
							CHANNELS 3 Xrotation Yrotation Zrotation
							JOINT Neck
							{
								OFFSET 0.000000 10.314075 0.188496
								CHANNELS 3 Xrotation Yrotation Zrotation
								JOINT Head
								{
									OFFSET 0.000000 7.643700 -2.377400
									CHANNELS 3 Xrotation Yrotation Zrotation
									JOINT HeadTop_End
									{
										OFFSET 0.000000 43.788605 -13.619600
										CHANNELS 3 Xrotation Yrotation Zrotation
										End Site
										{
											OFFSET 0 0 0
										}
									}
								}
							}
						}
						JOINT LeftShoulder_virtual
						{
							OFFSET 0.000000 0.000000 0.000000
							CHANNELS 3 Xrotation Yrotation Zrotation
							JOINT LeftShoulder
							{
								OFFSET 2.196100 4.412489 0.087492
								CHANNELS 3 Xrotation Yrotation Zrotation
								JOINT LeftShoulder_split
								{
									OFFSET 2.196100 4.412489 0.087492
									CHANNELS 3 Xrotation Yrotation Zrotation
									JOINT LeftArm
									{
										OFFSET 8.771219 -2.981674 -0.026999
										CHANNELS 3 Xrotation Yrotation Zrotation
										JOINT LeftForeArm
										{
											OFFSET 8.512804 0.000000 -0.000000
											CHANNELS 3 Xrotation Yrotation Zrotation
											JOINT LeftHand
											{
												OFFSET 18.484802 0.000000 -0.000000
												CHANNELS 3 Xrotation Yrotation Zrotation
												End Site
												{
													OFFSET 0 0 0
												}
											}
										}
									}
								}
							}
						}
						JOINT RightShoulder_virtual
						{
							OFFSET 0.000000 0.000000 0.000000
							CHANNELS 3 Xrotation Yrotation Zrotation
							JOINT RightShoulder
							{
								OFFSET -2.196100 4.412496 0.070690
								CHANNELS 3 Xrotation Yrotation Zrotation
								JOINT RightShoulder_split
								{
									OFFSET -2.196100 4.412496 0.070690
									CHANNELS 3 Xrotation Yrotation Zrotation
									JOINT RightArm
									{
										OFFSET -8.771282 -2.981682 -0.094208
										CHANNELS 3 Xrotation Yrotation Zrotation
										JOINT RightForeArm
										{
											OFFSET -8.494598 0.000000 0.000000
											CHANNELS 3 Xrotation Yrotation Zrotation
											JOINT RightHand
											{
												OFFSET -18.483803 0.000000 0.000001
												CHANNELS 3 Xrotation Yrotation Zrotation
												End Site
												{
													OFFSET 0 0 0
												}
											}
										}
									}
								}
							}
						}
					}
				}
			}
		}
	}
}
MOTION
Frames: 10
Frame Time: 0.03333333
1.142616 46.768616 139.551636 0.000000 0.000000 0.000000 15.656959 -39.238959 28.451081 -84.003001 -17.175195 18.038606 101.375621 6.368403 -0.475293 -24.773465 2.470978 -0.398525 2.026930 -0.205110 -5.121337 0.000000 0.000000 0.000000 11.515994 -34.644195 24.287255 -89.035983 -16.469565 -3.235472 90.910986 14.243554 6.523224 20.247017 14.635893 8.492579 -7.939904 1.624449 -2.165395 0.000000 0.000000 0.000000 12.778778 -30.565438 24.913487 34.437073 1.230908 -28.089756 13.387622 -0.003901 -3.159696 1.839106 -0.891815 0.290166 0.000000 0.000000 0.000000 18.453069 -1.193366 -0.147669 -2.252496 12.871851 -13.421011 -37.789231 -5.505097 0.055548 0.000000 0.000000 0.000000 17.078972 -0.544683 -0.889243 3.284126 -17.321069 -3.691914 1.764940 -2.444955 -0.824773 -87.438832 2.845316 -5.175093 10.655930 -57.367148 6.550843 0.000000 0.000000 0.000000 17.302655 -1.421573 -0.718392 6.031296 27.729538 -0.402142 -1.801537 4.982606 6.271686 -65.065953 -8.896587 40.418102 -82.762194 24.086160 59.545992 0.000000 0.000000 0.000000 
1.055994 46.514923 143.977814 0.000000 0.000000 0.000000 15.987758 -34.398202 25.829322 -76.568190 -12.089411 21.952392 90.746843 8.157346 -1.588507 -30.380856 4.108722 3.383972 0.017526 -0.447903 -4.313233 0.000000 0.000000 0.000000 13.980953 -33.329561 23.172612 -86.209862 -19.561805 -4.815644 64.023393 8.308113 12.382770 21.463238 12.100922 7.552617 -7.970260 1.963728 -2.379714 0.000000 0.000000 0.000000 14.814528 -28.466668 23.716275 34.663996 1.908146 -25.757530 12.814576 -0.350202 -3.190321 2.626589 -0.369834 0.344766 0.000000 0.000000 0.000000 17.987308 -1.463970 -0.394563 -2.875839 13.357453 -15.579100 -41.067906 -5.743567 0.637652 0.000000 0.000000 0.000000 16.503556 -0.857241 -1.071523 3.454731 -15.467052 -4.058621 1.975064 -3.326446 -1.061677 -85.849727 -0.454392 -3.082515 0.731556 -57.402822 -1.738313 0.000000 0.000000 0.000000 16.741765 -1.849446 -0.951923 5.614101 26.322612 1.870656 -1.032594 3.667322 6.689470 -60.262069 -8.455579 42.341094 -84.227509 26.010380 63.323299 0.000000 0.000000 0.000000 
0.830906 45.407001 147.957047 0.000000 0.000000 0.000000 14.955445 -28.756596 22.768328 -72.495655 -8.206907 24.682890 80.051893 8.545261 -1.438774 -32.270042 4.447172 3.852018 -1.765770 -0.557442 -3.000745 0.000000 0.000000 0.000000 15.657874 -30.958440 22.110494 -79.163108 -18.500493 -7.189537 41.086607 2.352963 14.159062 22.485054 8.817277 7.456249 -6.539259 1.929151 -1.817741 0.000000 0.000000 0.000000 15.657585 -26.654586 22.201163 33.804409 2.888857 -23.236671 11.937560 -0.732717 -2.859247 2.562343 -0.120432 0.371181 0.000000 0.000000 0.000000 16.868954 -1.641340 -0.216716 -2.744102 13.316951 -17.431399 -43.152623 -4.658823 0.984478 0.000000 0.000000 0.000000 15.694195 -1.073033 -0.709560 3.512463 -12.397481 -4.045094 3.134031 -4.031873 -1.500225 -83.971821 -1.356261 -1.311981 -6.793379 -58.438798 -8.091700 0.000000 0.000000 0.000000 15.989900 -2.146370 -0.760645 5.391428 24.951453 4.241866 -1.276010 2.972849 6.762366 -52.259615 -6.837185 43.939000 -84.097647 28.026274 66.504213 0.000000 0.000000 0.000000 
0.721726 43.572628 151.908020 0.000000 0.000000 0.000000 13.969794 -24.390131 20.382198 -71.011694 -6.615518 25.931587 69.850630 7.806573 -0.275846 -31.084748 4.174812 1.527178 -1.940445 -0.570921 -2.166204 0.000000 0.000000 0.000000 15.975500 -27.838813 20.904245 -68.732016 -13.539593 -10.003216 27.085166 0.804414 13.330493 22.876453 6.639819 10.814058 -5.503450 1.541396 -1.237369 0.000000 0.000000 0.000000 15.802148 -25.345051 20.756219 32.251668 3.796689 -20.769202 10.732373 -1.161227 -2.350998 1.538399 0.451581 0.443039 0.000000 0.000000 0.000000 15.252079 -1.785978 0.247350 -1.615845 12.821864 -18.652046 -43.456764 -2.409907 1.149318 0.000000 0.000000 0.000000 14.668156 -1.251655 -0.011219 3.452188 -9.025712 -3.737757 4.945698 -3.998409 -1.864447 -82.456892 0.446416 0.415355 -13.358487 -60.736562 -13.891285 0.000000 0.000000 0.000000 15.078857 -2.341766 -0.245503 5.255230 23.708514 6.454991 -2.112250 2.678661 6.746425 -41.741079 -5.313202 44.650985 -83.457159 30.419211 69.671993 0.000000 0.000000 0.000000 
0.703085 41.299400 156.006805 0.000000 0.000000 0.000000 13.751568 -22.673267 18.717672 -70.601671 -7.225134 25.763055 60.753897 7.473122 1.258506 -28.203784 3.398214 -0.969630 -1.020115 -0.572861 -1.869327 0.000000 0.000000 0.000000 15.837730 -25.577086 19.682928 -55.829273 -6.445849 -11.733071 20.552592 2.518497 11.798595 19.813277 4.744372 16.203164 -5.365259 0.784619 -1.230005 0.000000 0.000000 0.000000 15.453936 -24.903532 19.143987 30.327874 4.641337 -18.204957 9.322186 -1.568119 -1.853181 0.612047 0.199681 0.467933 0.000000 0.000000 0.000000 13.229730 -2.019324 0.691842 0.799973 12.158457 -19.038478 -41.747301 0.826791 1.239080 0.000000 0.000000 0.000000 13.433961 -1.470970 0.705568 3.170471 -6.231376 -3.073060 6.171872 -3.103033 -2.860916 -81.680340 4.455244 1.856492 -20.405416 -63.804881 -20.521418 0.000000 0.000000 0.000000 13.900118 -2.473049 0.340198 5.017828 22.456906 8.661830 -3.274268 2.498982 6.974897 -29.735970 -5.708637 44.631198 -83.776717 33.591359 73.937214 0.000000 0.000000 0.000000 
0.703735 38.886463 160.387924 0.000000 0.000000 0.000000 13.843372 -23.511907 16.956360 -69.160460 -8.267621 25.461548 52.336051 9.033382 2.533981 -26.085980 2.757993 -0.987899 0.723371 -0.644417 -2.069847 0.000000 0.000000 0.000000 14.797876 -24.955139 17.976129 -41.843651 0.787996 -11.231216 19.970927 5.671505 9.684972 9.372689 1.476702 19.905430 -4.723588 -0.138977 -1.614217 0.000000 0.000000 0.000000 14.824487 -25.465078 17.078494 28.578970 5.467125 -15.428480 7.648138 -1.836530 -1.574757 0.454414 -0.084886 0.310067 0.000000 0.000000 0.000000 11.002775 -2.252270 0.792279 4.339224 11.275667 -18.574189 -38.321996 4.242233 1.011017 0.000000 0.000000 0.000000 11.905027 -1.709222 1.115804 2.708410 -4.770033 -2.557305 6.685014 -2.078301 -3.814845 -80.718957 9.331180 2.833607 -29.517199 -67.731537 -29.516359 0.000000 0.000000 0.000000 12.339738 -2.541015 0.785032 4.671037 21.056083 10.705054 -4.089902 2.180294 7.176360 -17.443863 -9.203636 44.653615 -86.321174 37.464674 80.168553 0.000000 0.000000 0.000000 
0.850682 36.584663 165.103226 0.000000 0.000000 0.000000 13.838923 -26.515831 14.825725 -65.967497 -8.090749 25.852063 44.806085 12.320241 3.362121 -24.741141 2.734842 1.211854 2.035345 -0.869351 -2.243246 0.000000 0.000000 0.000000 12.959840 -26.597841 15.377116 -28.075561 6.766280 -9.143590 24.126685 7.526583 7.019515 -7.302311 -3.325153 17.239080 -3.787090 -0.979005 -1.569849 0.000000 0.000000 0.000000 13.517923 -27.113916 14.648606 27.271439 6.310011 -12.507762 5.796869 -1.802776 -1.499983 1.138101 -0.282412 0.379864 0.000000 0.000000 0.000000 8.678755 -2.410325 0.568717 8.240499 10.267205 -17.265238 -33.797579 7.255810 0.418289 0.000000 0.000000 0.000000 9.993537 -1.901225 1.173652 2.105452 -4.950840 -2.481929 5.937582 -1.369994 -4.087262 -78.311684 14.082554 2.813250 -41.797602 -72.060968 -42.147386 0.000000 0.000000 0.000000 10.204449 -2.552351 0.989165 4.215606 19.336184 12.422364 -4.199231 2.082755 6.802351 -6.171826 -15.480747 45.518276 -90.767846 41.163866 87.567096 0.000000 0.000000 0.000000 
0.830782 34.736450 169.841705 0.000000 0.000000 0.000000 12.772316 -29.999823 11.985392 -61.840751 -6.121680 27.081808 39.572569 15.908404 3.372663 -22.065727 2.920668 3.042134 0.911397 -1.117988 -1.570678 0.000000 0.000000 0.000000 10.515518 -30.089370 12.336797 -16.484887 10.935999 -6.648501 30.673546 6.830887 4.236619 -23.188682 -5.996019 8.848406 -4.651689 -1.737011 -0.609855 0.000000 0.000000 0.000000 11.530448 -28.915008 11.701517 26.617134 7.142209 -9.694290 3.756356 -1.430923 -1.374311 2.050496 -0.816109 0.705628 0.000000 0.000000 0.000000 6.276623 -2.347669 0.243926 11.714790 9.226648 -15.621954 -29.129814 9.406233 -0.403478 0.000000 0.000000 0.000000 7.640636 -1.942610 1.086071 1.406698 -6.558640 -2.933062 4.608367 -0.980771 -3.703012 -73.937952 17.718353 1.195282 -57.764822 -76.193294 -59.036713 0.000000 0.000000 0.000000 7.385707 -2.430275 1.123909 3.774323 17.268680 13.885599 -3.688256 2.648709 5.574931 3.450194 -23.024622 47.801489 -94.307133 44.351051 93.183253 0.000000 0.000000 0.000000 
0.681950 33.380196 174.598618 0.000000 0.000000 0.000000 10.184175 -32.333173 8.590012 -58.217111 -2.339955 28.416823 37.975565 18.894303 1.781508 -16.509696 3.333893 2.869178 -1.672976 -1.344676 -0.342328 0.000000 0.000000 0.000000 7.401313 -33.649064 8.940457 -7.580427 13.379782 -5.542422 37.156236 5.300841 2.107741 -29.438047 -5.209934 2.788794 -10.235605 -2.560376 1.348644 0.000000 0.000000 0.000000 8.668911 -30.081929 8.455894 26.848879 7.660076 -7.737417 1.526178 -0.865675 -0.980072 2.548811 -1.017226 1.409760 0.000000 0.000000 0.000000 3.971007 -1.993332 0.218160 13.418260 8.163367 -14.215825 -25.223691 10.167729 -1.229776 0.000000 0.000000 0.000000 4.935269 -1.760100 1.236326 0.705319 -9.080488 -4.014360 3.952210 -0.623861 -2.690533 -67.963142 19.528110 -2.322601 -79.080156 -79.872451 -81.776216 0.000000 0.000000 0.000000 4.056478 -2.215602 1.483263 3.332458 14.886691 15.035169 -3.047748 3.800643 3.783410 11.763655 -29.696078 51.159295 -94.946104 47.438177 95.083180 0.000000 0.000000 0.000000 
0.548490 32.488411 179.140564 0.000000 0.000000 0.000000 6.943877 -32.967124 5.554708 -56.212013 1.937579 29.012857 40.556950 20.770482 -1.712417 -7.777896 3.727388 0.155652 -4.199511 -1.437254 0.983094 0.000000 0.000000 0.000000 4.891451 -35.912937 5.915350 -0.172212 14.094486 -6.160828 40.636934 3.861839 0.696434 -24.363756 -3.511547 2.004649 -21.227205 -3.895333 3.805299 0.000000 0.000000 0.000000 5.535558 -30.107658 5.523348 27.835736 7.621204 -7.079717 -0.750210 -0.266488 -0.047414 2.140099 -1.242953 2.022643 0.000000 0.000000 0.000000 1.891792 -1.497932 0.853924 12.815609 7.313352 -13.497607 -22.379292 9.891699 -1.770577 0.000000 0.000000 0.000000 2.040480 -1.444588 1.923656 0.027854 -11.852268 -5.242812 3.577836 0.451993 -1.695153 -61.944236 19.027261 -7.473975 -107.524779 -82.800143 -111.908066 0.000000 0.000000 0.000000 0.524390 -2.034893 2.262403 2.996691 12.173837 16.128339 -2.563912 4.742077 2.113238 18.723056 -33.888755 55.039348 -92.894029 51.011596 93.686891 0.000000 0.000000 0.000000 
